<svg
   style="background-color: white;"
   xmlns="http://www.w3.org/2000/svg"
   version="1.1"
   viewBox="-5.0 -10.0 110.0 125.0"
>
 <path d="m23.719 10.938c-2.2969 0-4.1914 1.8945-4.1914 4.1914v5.1875h-14.535c-2.6328 0-4.9922 1.9453-4.9922 4.5664v3.3672c0 2.5117 2.1719 4.3828 4.6719 4.5352v41.691c0 2.8867 2.5469 5.2617 5.6445 5.2617h0.60547v4.7539c0 2.6055 2.3164 4.5664 4.9297 4.5664h68.266c2.6133 0 4.9297-1.9609 4.9297-4.5664v-4.7539h0.60547c3.0977 0 5.6445-2.375 5.6445-5.2617l0.003906-41.684c2.5117-0.14062 4.6992-2.0156 4.6992-4.5391v-3.3711c0-2.6211-2.3555-4.5664-4.9883-4.5664h-14.535v-5.1875c0-2.2969-1.8945-4.1914-4.1914-4.1914h-15.066c-2.2969 0-4.1914 1.8945-4.1914 4.1914v5.1875h-14.051v-5.1875c0-2.2969-1.8945-4.1914-4.1914-4.1914zm0 3.125h15.066c0.60547 0 1.0664 0.45703 1.0664 1.0664v5.1875h-17.199v-5.1875c0-0.60938 0.45703-1.0664 1.0664-1.0664zm37.5 0h15.066c0.60547 0 1.0664 0.45703 1.0664 1.0664v5.1875h-17.199v-5.1875c0-0.60938 0.45703-1.0664 1.0664-1.0664zm-56.227 9.3789h90.02c1.1641 0 1.8633 0.73438 1.8633 1.4414v3.3672c0 0.70703-0.69922 1.4414-1.8633 1.4414l-90.02 0.003906c-1.1641 0-1.8672-0.73437-1.8672-1.4414v-3.3672c0-0.70703 0.70312-1.4453 1.8672-1.4453zm2.918 9.3789h84.152v41.664c0 1.2578-1.0586 2.2422-2.4062 2.2422l-56.844-0.003906v-10.727l10.504-18.555c0.27344-0.48438 0.26953-1.0781-0.015625-1.5625-0.28125-0.48047-0.80078-0.77344-1.3555-0.76953l-5.7344 0.058594 1.8398-4.4141c0.19922-0.48438 0.14453-1.0312-0.14453-1.4688-0.28906-0.43359-0.77344-0.69531-1.2969-0.69531h-10.508c-0.63672 0-1.2109 0.38281-1.4492 0.97266l-5.5586 13.711c-0.19531 0.48437-0.13672 1.0312 0.15625 1.4609 0.28906 0.42969 0.77344 0.6875 1.293 0.6875h6.3867l2.7578 10.352v10.949h-19.371c-1.3477 0-2.4062-0.98438-2.4062-2.2422zm46.32 4.8906c-2.4609 0-4.4922 2.0312-4.4922 4.4922v10.168c0 2.4609 2.0312 4.4922 4.4922 4.4922h29.043c2.4609 0 4.4922-2.0312 4.4922-4.4922v-10.168c0-2.4609-2.0312-4.4922-4.4922-4.4922zm0 3.125h4.2344v12.902h-4.2344c-0.78516 0-1.3672-0.58203-1.3672-1.3672v-10.168c0-0.78516 0.58203-1.3672 1.3672-1.3672zm7.3594 0h5.5977v12.902h-5.6016zm8.7266 0h5.6016v12.902h-5.6055zm8.7266 0h4.2344c0.78516 0 1.3672 0.58203 1.3672 1.3672v10.168c0 0.78516-0.58203 1.3672-1.3672 1.3672h-4.2344zm-51.891 0.87891h7.1094l-1.8516 4.4414c-0.20312 0.48438-0.14844 1.0391 0.14453 1.4727 0.29687 0.4375 0.78906 0.69531 1.3125 0.69141l5.3906-0.054687-7.4844 13.219-2.1367-8.0195 0.003906-0.003906c-0.17969-0.6875-0.80078-1.1641-1.5078-1.1641h-5.2656zm32.875 19.531c-3.4336 0-6.25 2.8164-6.25 6.25s2.8164 6.25 6.25 6.25 6.25-2.8164 6.25-6.25-2.8164-6.25-6.25-6.25zm17.453 0c-3.4336 0-6.25 2.8164-6.25 6.25s2.8164 6.25 6.25 6.25c3.4336 0 6.25-2.8164 6.25-6.25s-2.8164-6.25-6.25-6.25zm-17.453 3.125c1.7461 0 3.125 1.3789 3.125 3.125s-1.3789 3.125-3.125 3.125-3.125-1.3789-3.125-3.125 1.3789-3.125 3.125-3.125zm17.453 0c1.7461 0 3.125 1.3789 3.125 3.125s-1.3789 3.125-3.125 3.125c-1.7461 0-3.125-1.3789-3.125-3.125s1.3789-3.125 3.125-3.125zm-63.43 15.371h71.871v4.7539c0 0.72266-0.68359 1.4414-1.8047 1.4414h-68.262c-1.1172 0-1.8047-0.71875-1.8047-1.4414z" fill-rule="evenodd"/>
</svg>