<svg height="200" width="200" xmlns="http://www.w3.org/2000/svg" viewBox="0 0 298 298" transform="rotate(270)">
  <g stroke-width="0"/>
  <path d="M298 141h-59.517c-3.323-9.592-12.442-16.5-23.151-16.5s-19.828 6.908-23.151 16.5h-85.695c-3.323-9.592-12.442-16.5-23.151-16.5s-19.828 6.908-23.151 16.5H0v16h60.183c3.323 9.592 12.442 16.5 23.151 16.5s19.828-6.908 23.151-16.5h85.695c3.323 9.592 12.442 16.5 23.151 16.5s19.828-6.908 23.151-16.5H298zm-74.168 8c0 4.686-3.814 8.5-8.5 8.5-4.687 0-8.5-3.814-8.5-8.5s3.813-8.5 8.5-8.5 8.5 3.814 8.5 8.5m-131.998 0c0 4.686-3.814 8.5-8.5 8.5-4.687 0-8.5-3.814-8.5-8.5s3.813-8.5 8.5-8.5 8.5 3.814 8.5 8.5" stroke-linecap="round" stroke-linejoin="round" stroke="#FFF" stroke-width="11.92"/>
  <path d="M298 141h-59.517c-3.323-9.592-12.442-16.5-23.151-16.5s-19.828 6.908-23.151 16.5h-85.695c-3.323-9.592-12.442-16.5-23.151-16.5s-19.828 6.908-23.151 16.5H0v16h60.183c3.323 9.592 12.442 16.5 23.151 16.5s19.828-6.908 23.151-16.5h85.695c3.323 9.592 12.442 16.5 23.151 16.5s19.828-6.908 23.151-16.5H298zm-74.168 8c0 4.686-3.814 8.5-8.5 8.5-4.687 0-8.5-3.814-8.5-8.5s3.813-8.5 8.5-8.5 8.5 3.814 8.5 8.5m-131.998 0c0 4.686-3.814 8.5-8.5 8.5-4.687 0-8.5-3.814-8.5-8.5s3.813-8.5 8.5-8.5 8.5 3.814 8.5 8.5"/>
</svg>
