<svg 
   xmlns="http://www.w3.org/2000/svg"
   viewBox="0 0 1000 1000"
   x="0px"
   y="0px"
   height="48"
   width="48"
   >
<path d="M388.08,408.67c28.22-28.22,65.62-45.56,105.33-48.83,29.07-2.4,58.15,2.8,84.31,14.78l-29.69,3.18c-5.49,.59-9.47,5.52-8.88,11.01,.55,5.13,4.89,8.94,9.93,8.94,.36,0,.72-.02,1.08-.06l58.52-6.27c3.5,.37,7.09-1.12,9.25-4.2,1.24-1.77,1.82-3.8,1.8-5.8,0-.41,0-.82-.05-1.23-.4-3.71-2.78-6.73-5.98-8.11-35.55-24.3-78.76-35.73-121.93-32.17-44.42,3.66-86.27,23.06-117.83,54.62-31.56,31.56-50.96,73.41-54.62,117.83-3.62,43.9,8.24,87.84,33.38,123.71,1.95,2.78,5.05,4.26,8.2,4.26,1.98,0,3.98-.59,5.73-1.81,4.52-3.17,5.62-9.41,2.45-13.93-22.47-32.06-33.06-71.33-29.83-110.59,3.27-39.71,20.61-77.11,48.83-105.33Z"/><path d="M642.08,417.38c-4.52,3.17-5.62,9.4-2.45,13.93,22.46,32.06,33.05,71.33,29.82,110.59-3.27,39.7-20.62,77.1-48.83,105.32s-65.62,45.55-105.32,48.83c-4.64,.38-9.27,.57-13.89,.57-26.02,0-51.66-6.01-74.82-17.44l37.08-3.97c5.49-.59,9.47-5.52,8.88-11.01-.59-5.49-5.54-9.47-11.01-8.88l-60.65,6.5c-2.88,.31-5.33,1.81-6.93,3.96-1.22,.71-2.31,1.67-3.17,2.9-3.17,4.52-2.07,10.76,2.45,13.93,31.64,22.17,69.55,34.01,108.18,34.01,5.17,0,10.35-.21,15.53-.64,44.42-3.66,86.26-23.06,117.82-54.62,31.56-31.56,50.95-73.4,54.62-117.82,3.62-43.9-8.23-87.83-33.37-123.71-3.17-4.52-9.4-5.62-13.93-2.45Z"/><path d="M464.48,624.44c1.83,1.42,3.99,2.11,6.13,2.11,2.98,0,5.93-1.33,7.9-3.86l68.21-87.64c2.42-3.11,2.79-7.36,.93-10.84-1.85-3.48-5.59-5.55-9.52-5.28l-52.63,3.65,60.06-77.1c3.39-4.36,2.61-10.64-1.74-14.03-4.36-3.39-10.64-2.61-14.03,1.74l-73.83,94.77c-2.42,3.11-2.79,7.36-.94,10.84,1.85,3.48,5.58,5.56,9.52,5.28l52.65-3.65-54.46,69.98c-3.39,4.36-2.61,10.64,1.75,14.03Z"/><path d="M427,253c5.52,0,10-4.48,10-10v-46c0-5.52-4.48-10-10-10s-10,4.48-10,10v46c0,5.52,4.48,10,10,10Z"/><path d="M498,253c5.52,0,10-4.48,10-10v-46c0-5.52-4.48-10-10-10s-10,4.48-10,10v46c0,5.52,4.48,10,10,10Z"/><path d="M573,253c5.52,0,10-4.48,10-10v-46c0-5.52-4.48-10-10-10s-10,4.48-10,10v46c0,5.52,4.48,10,10,10Z"/><path d="M523,817h-46c-11.05,0-20,8.95-20,20s8.95,20,20,20h46c11.05,0,20-8.95,20-20s-8.95-20-20-20Z"/><path d="M311,291h378c16.54,0,30-13.46,30-30v-82c0-16.54-13.46-30-30-30H311c-16.54,0-30,13.46-30,30v82c0,16.54,13.46,30,30,30Zm-10-112c0-5.51,4.49-10,10-10h378c5.51,0,10,4.49,10,10v82c0,5.51-4.49,10-10,10H311c-5.51,0-10-4.49-10-10v-82Z"/><path d="M929,723.43c5.89-5.65,7.75-14.32,4.7-21.89-3.05-7.57-10.39-12.53-18.55-12.53h-94.15V313h94.15c8.28,0,15.7-5.1,18.67-12.83,2.97-7.73,.86-16.49-5.29-22.03-14.02-12.62-21.21-24.68-21.39-35.85-.19-11.67,7.17-24.75,21.86-38.86,5.89-5.65,7.75-14.32,4.7-21.89-3.05-7.57-10.39-12.53-18.55-12.53h-94.15v-54c0-33.08-26.92-60-60-60H240c-33.08,0-60,26.92-60,60v54H84.85c-8.16,0-15.51,4.96-18.55,12.53-3.05,7.57-1.19,16.24,4.7,21.89,14.69,14.11,22.05,27.19,21.86,38.86-.18,11.17-7.38,23.23-21.39,35.85-6.15,5.54-8.26,14.3-5.29,22.03,2.97,7.73,10.39,12.83,18.67,12.83h95.15v376H84.85c-8.16,0-15.51,4.96-18.55,12.53-3.05,7.57-1.19,16.24,4.7,21.89,14.69,14.11,22.05,27.19,21.86,38.86-.18,11.17-7.38,23.23-21.39,35.85-6.15,5.54-8.26,14.3-5.29,22.03,2.97,7.73,10.39,12.83,18.67,12.83h95.15v52c0,33.08,26.92,60,60,60H761c33.08,0,60-26.92,60-60v-52h94.15c8.28,0,15.7-5.1,18.67-12.83,2.97-7.73,.86-16.49-5.29-22.03-14.02-12.62-21.21-24.68-21.39-35.85-.19-11.67,7.17-24.75,21.86-38.86Zm-107-514.43h53.11c-5.48,11.2-8.15,22.54-7.97,33.93,.16,10.22,2.61,20.26,7.31,30.07h-52.45v-64ZM178,273h-52.45c4.7-9.81,7.14-19.85,7.31-30.07,.18-11.39-2.49-22.73-7.97-33.93h53.11v64Zm0,520h-52.45c4.7-9.81,7.14-19.85,7.31-30.07,.18-11.39-2.49-22.73-7.97-33.93h53.11v64ZM240,95H761c11.03,0,20,8.97,20,20V754H220V115c0-11.03,8.97-20,20-20ZM761,905H240c-11.03,0-20-8.97-20-20v-111H781v111c0,11.03-8.97,20-20,20Zm106.14-142.07c.16,10.22,2.61,20.26,7.31,30.07h-52.45v-64h53.11c-5.48,11.2-8.15,22.54-7.97,33.93Z"
/>
</svg>