<svg xmlns="http://www.w3.org/2000/svg" height="75" viewBox="0 -960 960 960" width="75"><path d="M480.133-485Q511-485 533-507.133q22-22.133 22-53T532.867-613q-22.133-22-53-22T427-612.867q-22 22.133-22 53T427.133-507q22.133 22 53 22ZM480-160q132-118 197.5-216.919Q743-475.839 743-554q0-115.79-76.476-192.895Q590.047-824 479.815-824t-186.523 77.105Q217-669.79 217-554q0 78.441 67 177.22Q351-278 480-160Zm0 96Q309-206 226.5-326.5T144-554q0-149 99.5-246T480-897q137 0 236.5 97T816-554q0 107-82.5 227.5T480-64Zm0-496Z"/></svg>