<svg height="200" width="200" xmlns="http://www.w3.org/2000/svg" viewBox="-29.8 -29.8 357.6 357.6" transform="rotate(90 10.5 10.5)">
  <g stroke-width="0"/>
  <path d="M298 178.248h-59.517c-3.323-9.592-12.442-16.5-23.151-16.5-13.51 0-24.5 10.99-24.5 24.5s10.99 24.5 24.5 24.5c10.709 0 19.828-6.908 23.151-16.5H298zm-74.168 8c0 4.687-3.814 8.5-8.5 8.5-4.687 0-8.5-3.813-8.5-8.5s3.813-8.5 8.5-8.5 8.5 3.813 8.5 8.5m-52.818-98.996-76.967 76.967a24.34 24.34 0 0 0-10.713-2.472c-10.709 0-19.828 6.908-23.151 16.5H0v16h60.183c3.323 9.592 12.442 16.5 23.151 16.5 13.51 0 24.5-10.99 24.5-24.5a24.36 24.36 0 0 0-2.472-10.715l76.966-76.966zm-96.18 98.996c0-4.686 3.813-8.5 8.5-8.5s8.5 3.814 8.5 8.5c0 4.687-3.813 8.5-8.5 8.5s-8.5-3.814-8.5-8.5" stroke-linecap="round" stroke-linejoin="round" stroke="#FFF" stroke-width="11.92"/>
  <path d="M298 178.248h-59.517c-3.323-9.592-12.442-16.5-23.151-16.5-13.51 0-24.5 10.99-24.5 24.5s10.99 24.5 24.5 24.5c10.709 0 19.828-6.908 23.151-16.5H298zm-74.168 8c0 4.687-3.814 8.5-8.5 8.5-4.687 0-8.5-3.813-8.5-8.5s3.813-8.5 8.5-8.5 8.5 3.813 8.5 8.5m-52.818-98.996-76.967 76.967a24.34 24.34 0 0 0-10.713-2.472c-10.709 0-19.828 6.908-23.151 16.5H0v16h60.183c3.323 9.592 12.442 16.5 23.151 16.5 13.51 0 24.5-10.99 24.5-24.5a24.36 24.36 0 0 0-2.472-10.715l76.966-76.966zm-96.18 98.996c0-4.686 3.813-8.5 8.5-8.5s8.5 3.814 8.5 8.5c0 4.687-3.813 8.5-8.5 8.5s-8.5-3.814-8.5-8.5"/>
</svg>
