<svg xmlns="http://www.w3.org/2000/svg" height="75" viewBox="0 -960 960 960" width="75"><path d="M439.681-113.304q-102.072 0-174.225-70.16-72.152-70.159-72.152-171.514V-594.92L392.21-397.848l-53.283 54.043-70.109-68.594v58.776q0 69.449 50.355 117.167 50.354 47.717 120.554 47.717 70.201 0 120.429-48.275 50.228-48.276 50.228-117.964v-133.261q-35.572-12.797-58.184-42.83-22.613-30.032-22.613-67.789 0-37.758 22.653-67.736 22.652-29.978 58.144-43.075v-177.186h75.674v177.246q35.333 13.037 58.065 43.069 22.732 30.032 22.732 67.79 0 37.757-22.732 67.996-22.732 30.239-58.065 42.515v133.317q0 101.299-72.258 171.458-72.259 70.16-174.119 70.16Zm208.463-437.08q20.501 0 34.559-13.941 14.058-13.941 14.058-34.362 0-20.422-13.941-34.48-13.941-14.058-34.442-14.058-20.501 0-34.559 13.963-14.058 13.963-14.058 34.261 0 20.501 13.941 34.559 13.941 14.058 34.442 14.058Zm.117-48.5Z"/></svg>