<svg style="background-color: white;" xmlns="http://www.w3.org/2000/svg" height="75" viewBox="0 -960 960 960" width="75"><path d="M360.211-483q6.789 0 12.289-5.15T378-500v-120q0-7.125-5.503-12.562Q366.994-638 359.772-638q-6.797 0-11.785 5.438Q343-627.125 343-620v120q0 6.7 5.211 11.85 5.21 5.15 12 5.15ZM423-283h115v-56.911q0-24.614-16.724-41.352Q504.551-398 479.832-398q-25.194 0-41.013 16.528Q423-364.944 423-340.5v57.5Zm177.211-200q6.789 0 12.289-5.15T618-500v-120q0-7.125-5.503-12.562Q606.994-638 599.772-638q-6.797 0-11.785 5.438Q583-627.125 583-620v120q0 6.7 5.211 11.85 5.21 5.15 12 5.15ZM479.982-116q-76.09 0-141.967-28.911-65.877-28.912-115-78.188-49.123-49.277-78.069-115.067Q116-403.955 116-479.826q0-75.764 28.97-142.041 28.971-66.276 78.534-115.884 49.563-49.608 114.991-77.928Q403.924-844 479.383-844q75.822 0 142.404 28.286t115.971 77.848q49.39 49.562 77.816 116.082Q844-555.264 844-479.898q0 76.366-28.286 141.742-28.286 65.375-77.834 114.577-49.549 49.201-116.051 78.39Q555.327-116 479.982-116Zm.018-35q136.513 0 232.756-96.244Q809-343.487 809-480t-95.987-232.756Q617.025-809 480-809q-136.513 0-232.756 95.987Q151-617.025 151-480q0 136.513 96.244 232.756Q343.487-151 480-151Zm0-329Z"/></svg>