<svg xmlns="http://www.w3.org/2000/svg" height="75" viewBox="0 -960 960 960" width="75"><path d="M225.118-146q-51.618 0-87.868-36.167Q101-218.333 101-270H27v-472q0-28.725 22.138-50.862Q71.275-815 100-815h587v174h114l132 174v197h-77q0 51.667-36.132 87.833Q783.735-146 732.118-146q-51.201 0-87.16-36.167Q609-218.333 609-270H349q0 52-36.132 88-36.133 36-87.75 36Zm-.136-73Q246-219 261-233.982q15-14.983 15-36Q276-291 261.018-306q-14.983-15-36-15Q204-321 189-306.018q-15 14.983-15 36Q174-249 188.982-234q14.983 15 36 15ZM100-343h24q20-25 45.071-38.5 25.072-13.5 55-13.5Q254-395 279.5-380.5 305-366 325-343h289v-399H100v399Zm631.982 124Q753-219 768-233.982q15-14.983 15-36Q783-291 768.018-306q-14.983-15-36-15Q711-321 696-306.018q-15 14.983-15 36Q681-249 695.982-234q14.983 15 36 15ZM687-430h182L765-568h-78v138ZM358-532Z"/></svg>