<svg xmlns="http://www.w3.org/2000/svg" xmlns:xlink="http://www.w3.org/1999/xlink" version="1.1" x="0px" y="0px" viewBox="0 0 60 75" style="enable-background:new 0 0 60 60;" xml:space="preserve"><path d="M0.19922,23.59961l2.38965,3.18994c0.16016,0.21289,0.39844,0.35352,0.66211,0.39062  c0.2627,0.03613,0.53125-0.0332,0.74316-0.19336L6,25.4649V59c0,0.55225,0.44727,1,1,1h46c0.55273,0,1-0.44775,1-1V25.4649  l2.00586,1.52191c0.1748,0.13232,0.3877,0.20312,0.60449,0.20312c0.0459,0,0.09277-0.00342,0.13867-0.00977  c0.26367-0.03711,0.50195-0.17773,0.66211-0.39062l2.38965-3.18994c0.3291-0.43994,0.24219-1.06396-0.19629-1.39648l-29-22  c-0.35742-0.27051-0.85156-0.27051-1.20898,0l-29,22C-0.04297,22.53564-0.12988,23.15967,0.19922,23.59961z M52,58H8V23.94745  L30,7.25537l22,16.69208V58z M30,2.25537L57.60352,23.1958l-1.19043,1.58936L30.60449,5.20312C30.42578,5.06787,30.21289,5,30,5  s-0.42578,0.06787-0.60449,0.20312L3.58691,24.78516L2.39648,23.1958L30,2.25537z"/><path d="M20.1123,38.45996C20.28418,38.79199,20.62598,39,21,39h6.14062l-1.13574,11.90527  c-0.04395,0.45605,0.22852,0.8833,0.66016,1.03711C26.77539,51.98145,26.8877,52,27,52c0.32715,0,0.64258-0.16113,0.83203-0.44531  l12-18c0.2041-0.30664,0.22363-0.70117,0.0498-1.02637S39.36914,32,39,32h-6.13184l1.12695-10.89697  c0.0459-0.45264-0.21777-0.87939-0.64355-1.03955c-0.42773-0.15967-0.90625-0.01172-1.16895,0.35986l-12,17  C19.96777,37.72852,19.94043,38.12842,20.1123,38.45996z M31.6123,24.7002l-0.84766,8.19678  c-0.02832,0.28174,0.0625,0.5625,0.25293,0.77295C31.20703,33.87988,31.47656,34,31.75977,34h5.37207l-8.75879,13.1377  l0.8623-9.04297c0.02734-0.28027-0.06543-0.55908-0.25488-0.76758S28.52148,37,28.24023,37h-5.31055L31.6123,24.7002z"/></svg>