<svg id="Layer_1" data-name="Layer 1" xmlns="http://www.w3.org/2000/svg" viewBox="0 0 16.45202 18.61749"><path d="M15.838,12.29205a1.16623,1.16623,0,0,0-.38372-.14074V6.46619a1.16794,1.16794,0,0,0,.38372-.14081,1.22319,1.22319,0,1,0-1.22375-2.11829,1.24293,1.24293,0,0,0-.311.26337L9.37639,1.62561A1.24656,1.24656,0,0,0,9.449,1.22375a1.22376,1.22376,0,0,0-2.44751,0,1.24844,1.24844,0,0,0,.07263.40186L2.14965,4.4682a1.255,1.255,0,0,0-.31336-.26337,1.22848,1.22848,0,0,0-.92858-.12036A1.20819,1.20819,0,0,0,.163,4.65436,1.2305,1.2305,0,0,0,.61254,6.3277a1.21847,1.21847,0,0,0,.38373.13849v5.68512a1.16678,1.16678,0,0,0-.38373.14074,1.22374,1.22374,0,0,0,.61078,2.28406,1.21188,1.21188,0,0,0,.613-.16571,1.19724,1.19724,0,0,0,.311-.26343l4.92682,2.84485a1.24844,1.24844,0,0,0-.07263.40186,1.22376,1.22376,0,1,0,2.44751,0,1.24656,1.24656,0,0,0-.07264-.40186L14.30321,14.147a1.1993,1.1993,0,0,0,.92408.42914,1.22318,1.22318,0,0,0,.61071-2.28406ZM8.45232,2.4248a1.22273,1.22273,0,0,0,.697-.40637l4.92908,2.84479a1.21194,1.21194,0,0,0-.00452.806L10.93273,7.48334A3.25516,3.25516,0,0,0,8.45232,6.0672ZM2.3767,4.86322,7.3012,2.01843a1.22273,1.22273,0,0,0,.697.40637V6.06732a3.25479,3.25479,0,0,0-2.47949,1.417L2.37438,5.66925A1.21253,1.21253,0,0,0,2.3767,4.86322Zm-.92639,7.28809V6.4707a1.2382,1.2382,0,0,0,.69934-.40643L5.3015,7.88452a3.15369,3.15369,0,0,0,.001,2.8501l-3.15283,1.8208A1.23474,1.23474,0,0,0,1.45031,12.15131Zm6.54791,4.04132a1.2232,1.2232,0,0,0-.697.40643L2.37438,13.75421c.00909-.02948.02271-.05676.0318-.08624a1.223,1.223,0,0,0-.02948-.72205l3.142-1.813a3.25469,3.25469,0,0,0,2.47955,1.41724ZM7.58648,11.4989l.62677-1.85132H7.01067l1.85486-2.529L8.23882,8.96991H9.44134Zm1.56286,5.10016a1.2232,1.2232,0,0,0-.697-.40643V12.55029a3.25511,3.25511,0,0,0,2.48035-1.4162l3.14123,1.81415a1.21165,1.21165,0,0,0,.00452.806Zm5.8509-4.44775a1.2219,1.2219,0,0,0-.69928.40411l-3.15107-1.82135a3.1534,3.1534,0,0,0,0-2.85071L14.301,6.062a1.22205,1.22205,0,0,0,.69928.40418Z"/></svg>